<svg width="197" height="276" xmlns="http://www.w3.org/2000/svg" xmlns:undefined="http://www.bohemiancoding.com/sketch/ns" version="1.1">
 <!-- Generator: Sketch 3.5.2 (25235) - http://www.bohemiancoding.com/sketch -->
 <title>mole</title>
 <desc>Created with Sketch.</desc>
 <defs>
  <linearGradient id="linearGradient-1" y2="1913.75172%" x2="102.930973%" y1="1913.75172%" x1="-2.91199922%">
   <stop offset="0%" stop-color="#F1AAC2"/>
   <stop offset="100%" stop-color="#E5638F"/>
  </linearGradient>
  <linearGradient id="linearGradient-2" y2="1911.46876%" x2="-2.9309731%" y1="1911.46876%" x1="102.911999%">
   <stop offset="0%" stop-color="#F1AAC2"/>
   <stop offset="100%" stop-color="#E5638F"/>
  </linearGradient>
  <linearGradient id="linearGradient-3" y2="90.3397894%" x2="90.1838279%" y1="18.7873013%" x1="27.3602544%">
   <stop offset="0%" stop-color="#FFCEAE"/>
   <stop offset="100%" stop-color="#FFB280"/>
  </linearGradient>
  <linearGradient id="linearGradient-4" y2="1770.32632%" x2="108.55641%" y1="1770.32632%" x1="-8.6108091%">
   <stop offset="0%" stop-color="#8A8A8A"/>
   <stop offset="28.57%" stop-color="#F1F1F1"/>
   <stop offset="100%" stop-color="#FFFFFF"/>
  </linearGradient>
  <linearGradient id="linearGradient-5" y2="1772.18319%" x2="108.533944%" y1="1772.18319%" x1="-8.63327515%">
   <stop offset="0%" stop-color="#8A8A8A"/>
   <stop offset="28.57%" stop-color="#F1F1F1"/>
   <stop offset="100%" stop-color="#FFFFFF"/>
  </linearGradient>
 </defs>
 <g>
  <title>Layer 1</title>
  <g  fill-rule="evenodd" fill="none" id="Page-1">
   <g  id="mole">
    <path  fill="#333333" stroke-width="5.81003" stroke="#000000" id="Shape" d="m98.09192,2.92678c-0.24448,0 -0.57445,0.03774 -0.83957,0.04191l0,0.04191c-14.62589,0.17038 -50.18219,3.26567 -63.26151,35.13595c-6.51885,-8.66468 -0.00537,0.00269 -21.03119,-19.93976c0,0 -26.38005,25.84749 9.61306,44.2033c12.50198,115.99288 -12.96825,160.56564 61.03665,158.97234c4.21619,-0.09081 8.84482,-0.02955 13.64299,0.08396l0.12587,0l2.18288,0.04191l0,-0.08396c4.80244,-0.11378 9.42336,-0.17486 13.64299,-0.08396c74.0049,1.5933 48.53466,-42.97945 61.03665,-158.97234c35.9931,-18.35581 9.61306,-44.20329 9.61306,-44.20329c-21.02552,19.94263 -14.51234,11.27507 -21.0312,19.93976c-13.52084,-32.94617 -51.12754,-35.17794 -64.73075,-35.17794l0.00007,0.00021z"/>
    <path  fill="#93939F" stroke-width="2.70513" stroke="#000000" id="Shape" d="m169.76726,196.17145c0,42.52865 -31.19782,77.00494 -69.68226,77.00494c-38.48445,0 -69.68227,-34.47629 -69.68227,-77.00494c0,-42.52865 31.19782,-77.00495 69.68227,-77.00495c38.48444,0 69.68226,34.4763 69.68226,77.00495l0,0z"/>
    <path  fill="#7F7F8D" id="Shape" d="m99.04422,120.06053c37.4277,1.33074 67.41737,35.26197 67.41737,76.94648c0,39.34175 -26.69658,71.75813 -61.16258,76.40076c24.04803,-6.71399 42.2303,-38.1184 42.2303,-75.85504c0,-40.95348 -21.40369,-74.4579 -48.48509,-77.03043l0,-0.46177l0,0z"/>
    <path  fill="#C1C1C8" id="Shape" d="m98.86329,118.92096c-37.42771,1.33074 -67.41737,35.26197 -67.41737,76.94648c0,39.34175 26.69658,71.75813 61.16258,76.40076c-24.04803,-6.71399 -42.23031,-38.1184 -42.23031,-75.85504c0,-40.95348 21.4037,-74.4579 48.4851,-77.03043l0,-0.46177l0,0z"/>
    <path  fill="#FFFFFF" stroke-width="5.48447" stroke="#000000" id="Shape" d="m72.83607,31.46503c-17.27515,0 -31.30441,16.21967 -31.30441,36.20808c0,19.98841 14.02926,36.20614 31.30441,36.20614c10.15205,0 19.15952,-5.60667 24.87853,-14.28297c5.71706,8.68211 14.74583,14.28297 24.9037,14.28297c17.26933,0 31.30053,-16.22158 31.30053,-36.20614c0,-19.98456 -14.0312,-36.20808 -31.30053,-36.20808c-10.15592,0 -19.18664,5.60475 -24.9037,14.28492c-5.71901,-8.67437 -14.72842,-14.28492 -24.87853,-14.28492l0,0z"/>
    <path  fill="#A5A5A5" opacity="0.3374" id="Shape" d="m138.18959,34.96469c0.38218,2.29775 0.56362,4.68431 0.56362,7.11042c0,20.6404 -14.46421,37.37293 -32.30028,37.37293c-10.49123,0 -19.84883,-5.77403 -25.75352,-14.74106c-5.90668,8.96103 -15.18158,14.74106 -25.6668,14.74106c-5.20151,0 -10.12522,-1.41638 -14.48093,-3.9454c2.87308,17.24688 15.9944,30.30592 31.73665,30.30592c10.48523,0 19.80348,-5.82339 25.71016,-14.78443c5.90469,8.96703 15.21893,14.78443 25.71016,14.78443c17.83607,0 32.34364,-16.7759 32.34364,-37.41632c0,-14.62593 -7.27909,-27.28194 -17.8627,-33.42755l0,0z"/>
    <g  id="Group">
     <path fill="#FFFFFF" id="Shape" d="m108.70382,66.94891c0,1.29757 -1.05161,2.34919 -2.34919,2.34919c-1.29757,0 -2.34918,-1.05162 -2.34918,-2.34919c0,-1.29757 1.05161,-2.35112 2.34918,-2.35112c1.29758,0 2.34919,1.05355 2.34919,2.35112l0,0z"/>
    </g>
    <path  fill="url(#linearGradient-1)" stroke-width="1.34331" stroke="#000000" id="Shape" d="m10.58648,27.61038c0,0 -13.64513,15.81534 10.07431,30.8108c3.80799,-3.68934 4.35245,-4.34194 8.83182,-7.89381l0,-2.85453c-5.42646,-2.95967 -2.92163,-6.8306 -11.77125,-17.83199l-7.13488,-2.23047l0,0z"/>
    <path  fill="url(#linearGradient-2)" stroke-width="1.34331" stroke="#000000" id="Shape" d="m187.58764,28.31378c0,0 13.64512,15.81534 -10.07432,30.8108c-3.80799,-3.68935 -4.35244,-4.34194 -8.83182,-7.89381l0,-2.85454c5.42646,-2.95966 2.92164,-6.83059 11.77125,-17.83198l7.13489,-2.23047l0,0z"/>
    <path  fill="#7F7F8D" id="Shape" d="m90.0311,122.31382c37.42771,1.33073 67.41738,35.26196 67.41738,76.94647c0,39.34175 -26.69659,71.75813 -61.16259,76.40076c24.04803,-6.71399 42.23031,-38.1184 42.23031,-75.85504c0,-40.95348 -21.4037,-74.4579 -48.4851,-77.03043l0,-0.46176l0,0z"/>
    <path  fill="url(#linearGradient-3)" stroke-width="2.68662" stroke="#000000" id="Shape" d="m98.37618,93.08536c-11.54535,0 -21.50257,5.69108 -26.06861,13.8899c-10.53159,3.25271 -17.29512,8.355 -17.29512,14.07942c0,1.57672 0.54607,3.12004 1.51122,4.57581c-0.72503,1.6887 -1.09144,3.44798 -1.09144,5.25272c0,13.04325 19.99892,23.61011 44.66506,23.61011c24.66614,0 44.66506,-10.56686 44.66506,-23.61011c0,-2.07587 -0.51806,-4.09276 -1.46925,-6.01085c0.66952,-1.2259 1.04947,-2.51178 1.04947,-3.81768c0,-6.26754 -8.12081,-11.77773 -20.40153,-14.94585c-4.7674,-7.73409 -14.42731,-13.02347 -25.56486,-13.02347l0,0z"/>
    <path  fill="#000000" id="Shape" d="m114.7267,100.96992c0,8.71115 -7.06178,15.77293 -15.77293,15.77293c-8.71115,0 -15.77293,-7.06178 -15.77293,-15.77293c0,-8.71115 7.06178,-15.77294 15.77293,-15.77294c8.71115,0 15.77293,7.06178 15.77293,15.77294l0,0z"/>
    <path  fill="url(#linearGradient-4)" stroke-width="3.04519" stroke="#000000" id="Shape" d="m79.80795,134.96672l17.87807,0l0,27.24277l-17.87807,0l0,-27.24277z"/>
    <path  fill="url(#linearGradient-5)" stroke-width="3.04519" stroke="#000000" id="Shape" d="m97.90467,134.46086l17.87808,0l0,27.24277l-17.87808,0l0,-27.24277z"/>
    <path  stroke-width="5.37324" stroke="#000000" id="Shape" d="m62.90133,125.75595c25.97288,14.49712 50.26198,12.1565 73.23149,-3.37991"/>
    <line id="svg_1" y2="92" x2="95.5" y1="42" x1="50.5" stroke-width="3.47634" stroke="#000000" fill="none"/>
   </g>
  </g>
  <line id="svg_2" y2="45" x2="95.5" y1="89" x1="50.5" stroke-width="3.47634" stroke="#000000" fill="none"/>
  <line id="svg_3" y2="-20" x2="188.5" y1="-19" x1="188.5" stroke-width="3.47634" stroke="#000000" fill="none"/>
  <line id="svg_4" y2="94" x2="141.5" y1="45" x1="102.5" stroke-width="3.47634" stroke="#000000" fill="none"/>
  <line id="svg_5" y2="175" x2="227.5" y1="175" x1="226.5" stroke-width="3.47634" stroke="#000000" fill="none"/>
  <line id="svg_6" y2="46" x2="143.5" y1="89" x1="108.5" stroke-width="3.47634" stroke="#000000" fill="none"/>
 </g>
</svg>